<?xml version="1.0" standalone="no"?>
<!DOCTYPE svg PUBLIC "-//W3C//DTD SVG 20010904//EN"
 "http://www.w3.org/TR/2001/REC-SVG-20010904/DTD/svg10.dtd">
<svg version="1.0" xmlns="http://www.w3.org/2000/svg"
 width="700.000000pt" height="700.000000pt" viewBox="0 0 700.000000 700.000000"
 preserveAspectRatio="xMidYMid meet">
<metadata>
Created by potrace 1.11, written by Peter Selinger 2001-2013
</metadata>
<g transform="translate(0.000000,700.000000) scale(0.100000,-0.100000)"
fill="#000000" stroke="none">
<path d="M862 6986 c-216 -53 -383 -232 -418 -447 -8 -56 -9 -5996 0 -6066 20
-166 133 -327 285 -407 136 -71 -85 -66 2796 -63 l2600 2 64 23 c196 71 334
235 367 437 9 55 9 4359 0 4418 -16 104 -92 272 -187 414 -47 70 -186 261
-199 273 -3 3 -37 43 -75 90 -38 47 -72 87 -75 90 -3 3 -43 48 -90 100 -101
114 -402 415 -519 520 -352 316 -663 530 -876 604 -60 21 -66 21 -1840 23
-1419 1 -1791 -1 -1833 -11z m3493 -425 c20 -1 20 -7 19 -763 -1 -420 3 -783
8 -808 13 -63 49 -114 105 -147 l48 -28 765 -2 c421 -1 779 -2 795 -3 l30 0 0
-2147 c-1 -1808 -3 -2151 -15 -2169 -7 -12 -27 -30 -44 -39 -28 -17 -151 -18
-2566 -18 -2438 0 -2538 1 -2568 18 -17 10 -36 30 -44 43 -11 21 -13 547 -13
3006 0 2962 0 2981 20 3008 11 16 38 33 61 40 33 10 398 13 1710 11 918 -1
1678 -2 1689 -2z m605 -380 c36 -31 78 -67 94 -81 219 -186 728 -720 799 -837
7 -11 -83 -13 -516 -13 l-525 0 0 525 0 525 41 -32 c23 -17 71 -57 107 -87z"/>
<path d="M2625 2845 c0 -1149 3 -1524 12 -1521 6 3 283 195 615 427 331 232
628 439 658 460 30 21 175 123 322 226 148 104 328 230 400 281 73 51 143 100
156 110 22 17 21 19 -634 477 -362 253 -690 483 -729 510 -39 28 -234 164
-433 303 -198 138 -362 252 -364 252 -2 0 -3 -686 -3 -1525z"/>
</g>
</svg>
